<svg width="512" height="512" viewBox="0 0 512 512" fill="none" xmlns="http://www.w3.org/2000/svg">
<rect x="368.338" y="153.006" width="21.0069" height="16.2326" rx="8.11629" fill="url(#paint0_linear_107_16672)"/>
<rect x="396.016" y="153.006" width="53.4721" height="16.2326" rx="8.11629" fill="url(#paint1_linear_107_16672)"/>
<rect x="387.428" y="183.562" width="31.5103" height="16.2326" rx="8.11629" fill="url(#paint2_linear_107_16672)"/>
<rect x="383.609" y="123.4" width="34.3749" height="16.2326" rx="8.11629" fill="url(#paint3_linear_107_16672)"/>
<path d="M244.672 53.7031C278.512 53.7032 308.698 69.351 328.388 93.8057H362.599C367.345 93.8057 371.193 97.6544 371.193 102.4C371.193 107.146 367.345 110.994 362.599 110.994H294.353C287.406 110.994 280.784 108.438 274.664 105.152C265.732 100.356 255.519 97.6357 244.671 97.6357C209.602 97.6359 181.173 126.065 181.173 161.134C181.173 196.203 209.602 224.632 244.671 224.632C253.793 224.632 262.467 222.708 270.307 219.244C275.643 216.886 281.284 215.073 287.118 215.073H337.582C337.581 215.075 337.58 215.077 337.579 215.078H346.367C351.113 215.078 354.961 218.925 354.961 223.671C354.961 228.417 351.113 232.265 346.367 232.265H325.161C305.48 254.516 276.714 268.546 244.672 268.546C185.345 268.546 137.25 220.452 137.25 161.125C137.25 101.798 185.345 53.7031 244.672 53.7031ZM345.285 123.413H373.103C377.848 123.413 381.696 127.261 381.696 132.007C381.696 136.753 377.849 140.601 373.103 140.601H337.773C334.082 140.601 331.089 143.594 331.089 147.285C331.089 150.977 334.082 153.969 337.773 153.969H352.437C357.021 154.151 360.682 157.925 360.683 162.555C360.683 167.301 356.835 171.148 352.089 171.148H325.83C321.875 171.149 318.669 174.355 318.669 178.31C318.669 182.265 321.875 185.471 325.83 185.472H370.282C375.008 185.496 378.832 189.333 378.832 194.064C378.832 198.81 374.984 202.658 370.238 202.658H343.768L343.767 202.66H292.71C302.342 191.527 308.17 177.011 308.17 161.134C308.17 147.005 303.554 133.955 295.75 123.407H345.282C345.283 123.409 345.284 123.411 345.285 123.413Z" fill="#FF0004"/>
<mask id="mask0_107_16672" style="mask-type:alpha" maskUnits="userSpaceOnUse" x="137" y="53" width="245" height="216">
<path d="M244.703 53.6582C278.544 53.6583 308.729 69.3076 328.419 93.7627H362.627C367.373 93.7629 371.22 97.6107 371.221 102.356C371.221 107.103 367.373 110.95 362.627 110.95H339.733C339.735 110.954 339.737 110.958 339.739 110.962H301.978C298.55 110.962 295.771 113.74 295.771 117.168C295.771 120.596 298.55 123.375 301.978 123.375H345.318L345.319 123.377H373.143C377.888 123.377 381.736 127.225 381.736 131.971C381.736 136.663 377.975 140.474 373.304 140.561H337.799C334.108 140.561 331.115 143.553 331.114 147.244C331.114 150.936 334.107 153.929 337.799 153.929H352.495C357.07 154.122 360.72 157.89 360.721 162.513C360.721 167.259 356.873 171.106 352.127 171.106H351.661C351.661 171.108 351.66 171.111 351.66 171.112H325.859C321.904 171.112 318.698 174.319 318.698 178.274C318.698 182.229 321.904 185.436 325.859 185.436H370.489C375.133 185.553 378.861 189.352 378.861 194.023C378.861 198.769 375.013 202.617 370.268 202.617H343.798C343.796 202.621 343.794 202.624 343.793 202.628H301.978C298.55 202.628 295.771 205.407 295.771 208.835C295.771 212.263 298.55 215.041 301.978 215.041H346.692C351.302 215.197 354.991 218.98 354.991 223.627C354.991 228.373 351.144 232.221 346.397 232.221H325.191C305.51 254.472 276.745 268.502 244.703 268.502C185.376 268.502 137.281 220.407 137.281 161.08C137.282 101.753 185.376 53.6582 244.703 53.6582ZM243.732 106.197C213.41 106.197 188.828 130.779 188.828 161.102C188.828 191.424 213.41 216.006 243.732 216.006C274.055 216.006 298.637 191.424 298.637 161.102C298.637 130.779 274.055 106.197 243.732 106.197Z" fill="black"/>
</mask>
<g mask="url(#mask0_107_16672)">
<g filter="url(#filter0_f_107_16672)">
<ellipse cx="366.441" cy="99.2833" rx="21.2322" ry="16.2364" fill="#FFDEDE" fill-opacity="0.8"/>
</g>
<g filter="url(#filter1_f_107_16672)">
<ellipse cx="385.58" cy="131.455" rx="47.414" ry="14.4555" fill="#FFD1D1"/>
</g>
<g filter="url(#filter2_f_107_16672)">
<ellipse cx="386.736" cy="193.325" rx="46.2576" ry="13.8773" fill="#FFD1D1"/>
</g>
</g>
<circle cx="62.0107" cy="355.214" r="50.0395" stroke="black" stroke-width="23.9424"/>
<path d="M338.074 336.299H366.806C380.702 336.299 392.185 347.721 392.185 362.08V376.6C392.185 390.959 380.702 402.38 366.806 402.38H338.074C324.178 402.38 312.695 390.959 312.695 376.6V362.08C312.695 347.721 324.178 336.299 338.074 336.299Z" stroke="black" stroke-width="23.9424"/>
<path d="M202.347 348.29H174.772C164.194 348.29 155.618 356.866 155.618 367.444V371.274C155.618 381.853 164.194 390.429 174.772 390.429H216.78L237.309 414.371H174.772L173.66 414.356C150.373 413.767 131.676 394.704 131.676 371.274V367.444C131.676 344.015 150.373 324.951 173.66 324.361L174.772 324.348H219.978L202.347 348.29Z" fill="black"/>
<path d="M266.24 369.345H266.235V385.625C266.236 388.269 268.379 390.414 271.023 390.414H290.324L308.562 414.356H271.023L270.282 414.347C254.757 413.953 242.293 401.245 242.293 385.625V345.402H266.24V369.345Z" fill="black"/>
<circle cx="254.018" cy="306.371" r="13.1683" fill="#FF0004"/>
<path d="M293.532 348.29H225.359L242.883 324.348H293.532V348.29Z" fill="black"/>
<path d="M475.53 324.373C495.629 324.373 511.923 340.667 511.923 360.766V379.44L511.911 380.38C511.42 399.732 495.822 415.331 476.47 415.821L475.53 415.833H439.81L457.059 391.891H475.53C482.406 391.891 487.98 386.316 487.98 379.44V360.766C487.98 353.89 482.406 348.315 475.53 348.315H448.236C441.36 348.315 435.786 353.89 435.786 360.766V391.891H435.803V415.83L435.804 415.833H435.786V446.48C435.786 452.598 431.961 457.822 426.572 459.894L411.844 448.556V360.766C411.844 340.981 427.632 324.883 447.297 324.385L448.236 324.373H475.53Z" fill="black"/>
<defs>
<filter id="filter0_f_107_16672" x="316.563" y="54.4011" width="99.7563" height="89.7641" filterUnits="userSpaceOnUse" color-interpolation-filters="sRGB">
<feFlood flood-opacity="0" result="BackgroundImageFix"/>
<feBlend mode="normal" in="SourceGraphic" in2="BackgroundImageFix" result="shape"/>
<feGaussianBlur stdDeviation="14.3229" result="effect1_foregroundBlur_107_16672"/>
</filter>
<filter id="filter1_f_107_16672" x="299.972" y="78.8057" width="171.217" height="105.299" filterUnits="userSpaceOnUse" color-interpolation-filters="sRGB">
<feFlood flood-opacity="0" result="BackgroundImageFix"/>
<feBlend mode="normal" in="SourceGraphic" in2="BackgroundImageFix" result="shape"/>
<feGaussianBlur stdDeviation="19.0972" result="effect1_foregroundBlur_107_16672"/>
</filter>
<filter id="filter2_f_107_16672" x="302.284" y="141.253" width="168.904" height="104.143" filterUnits="userSpaceOnUse" color-interpolation-filters="sRGB">
<feFlood flood-opacity="0" result="BackgroundImageFix"/>
<feBlend mode="normal" in="SourceGraphic" in2="BackgroundImageFix" result="shape"/>
<feGaussianBlur stdDeviation="19.0972" result="effect1_foregroundBlur_107_16672"/>
</filter>
<linearGradient id="paint0_linear_107_16672" x1="393.202" y1="161.014" x2="368.338" y2="161.055" gradientUnits="userSpaceOnUse">
<stop stop-color="#FFE7E7" stop-opacity="0"/>
<stop offset="1" stop-color="#FF6466"/>
</linearGradient>
<linearGradient id="paint1_linear_107_16672" x1="459.306" y1="161.014" x2="396.016" y2="161.275" gradientUnits="userSpaceOnUse">
<stop stop-color="#FFE7E7" stop-opacity="0"/>
<stop offset="1" stop-color="#FF6466"/>
</linearGradient>
<linearGradient id="paint2_linear_107_16672" x1="424.724" y1="191.571" x2="387.428" y2="191.662" gradientUnits="userSpaceOnUse">
<stop stop-color="#FFE7E7" stop-opacity="0"/>
<stop offset="1" stop-color="#FF6466"/>
</linearGradient>
<linearGradient id="paint3_linear_107_16672" x1="424.296" y1="131.409" x2="383.609" y2="131.517" gradientUnits="userSpaceOnUse">
<stop stop-color="#FFE7E7" stop-opacity="0"/>
<stop offset="1" stop-color="#FF6466"/>
</linearGradient>
</defs>
</svg>
