<?xml version="1.0" standalone="no"?><!DOCTYPE svg PUBLIC "-//W3C//DTD SVG 1.1//EN" "http://www.w3.org/Graphics/SVG/1.1/DTD/svg11.dtd"><svg t="1772610199072" class="icon" viewBox="0 0 1024 1024" version="1.1" xmlns="http://www.w3.org/2000/svg" p-id="12661" xmlns:xlink="http://www.w3.org/1999/xlink" width="64" height="64"><path d="M749.738667 864.056889a16.554667 16.554667 0 0 1 8.106666 2.048 23.182222 23.182222 0 0 1 2.787556 1.848889 16.782222 16.782222 0 0 1 5.546667 8.305778 20.252444 20.252444 0 0 1 0.739555 4.124444v69.546667a16.554667 16.554667 0 0 1-1.308444 6.570666 20.48 20.48 0 0 1-2.076445 3.669334 16.583111 16.583111 0 0 1-6.428444 5.290666 12.430222 12.430222 0 0 1-2.360889 0.910223 16.412444 16.412444 0 0 1-4.977778 0.739555H251.676444a16.64 16.64 0 0 1-8.817777-2.446222 16.725333 16.725333 0 0 1-5.916445-5.888 15.445333 15.445333 0 0 1-1.934222-4.664889 15.644444 15.644444 0 0 1-0.512-4.181333v-68.693334a16.981333 16.981333 0 0 1 6.286222-13.283555 18.403556 18.403556 0 0 1 5.12-2.872889 16.298667 16.298667 0 0 1 5.774222-1.024h498.062223zM904.334222 56.888889a68.608 68.608 0 0 1 66.759111 52.337778 67.612444 67.612444 0 0 1 1.877334 12.913777l0.085333 3.441778v583.907556a69.489778 69.489778 0 0 1-6.200889 28.501333 71.623111 71.623111 0 0 1-8.448 13.937778 65.450667 65.450667 0 0 1-11.52 11.52 69.404444 69.404444 0 0 1-29.383111 13.482667 65.024 65.024 0 0 1-9.728 1.194666l-3.413333 0.056889H97.137778a69.404444 69.404444 0 0 1-31.431111-7.594667 71.907556 71.907556 0 0 1-13.511111-9.102222 67.043556 67.043556 0 0 1-12.8-14.734222 70.058667 70.058667 0 0 1-8.988445-20.906667 68.465778 68.465778 0 0 1-1.905778-12.913777L28.444444 709.518222V125.553778a68.636444 68.636444 0 0 1 65.251556-68.636445L97.137778 56.888889h807.196444z m-34.332444 103.054222H131.498667v515.214222h738.474666V159.943111z m-446.520889 137.386667v257.592889h-103.054222v-257.592889h103.054222z m257.592889 0v257.592889h-103.025778v-257.592889h103.025778z" fill="#1A90FE" p-id="12662"></path></svg>