<svg viewBox="0 0 48 48" xmlns="http://www.w3.org/2000/svg" role="img" aria-label="Figma">
  <rect width="48" height="48" rx="10" fill="#fff"/>
  <g transform="translate(10 6) scale(1.17)">
    <path fill="#0ACF83" d="M8 24c0-4.4 3.6-8 8-8h4v8c0 4.4-3.6 8-8 8s-8-3.6-8-8z"/>
    <path fill="#A259FF" d="M8 16c0-4.4 3.6-8 8-8s8 3.6 8 8-3.6 8-8 8H8V16z"/>
    <path fill="#F24E1E" d="M8 8C8 3.6 11.6 0 16 0s8 3.6 8 8-3.6 8-8 8H8V8z"/>
    <path fill="#FF7262" d="M0 24c0-4.4 3.6-8 8-8h4v8c0 4.4-3.6 8-8 8S0 28.4 0 24z"/>
    <path fill="#1ABCFE" d="M0 16c0-4.4 3.6-8 8-8h4v16H8c-4.4 0-8-3.6-8-8z"/>
  </g>
</svg>
