<svg xmlns="http://www.w3.org/2000/svg" viewBox="0 0 64 64" fill="none">
  <defs>
    <linearGradient id="bg" x1="0" y1="0" x2="64" y2="64" gradientUnits="userSpaceOnUse">
      <stop offset="0%" stop-color="#6366F1"/>
      <stop offset="100%" stop-color="#8B5CF6"/>
    </linearGradient>
  </defs>
  <rect width="64" height="64" rx="14" fill="url(#bg)"/>
  <g transform="translate(16,16)" stroke="#fff" stroke-width="2" stroke-linecap="round" stroke-linejoin="round" fill="none">
    <path d="M14 2 L14 6 A4 4 0 0 1 14 14 L14 18 A2 2 0 0 1 12 20 L8 20 L8 18 A4 4 0 0 0 0 18 L0 20 A2 2 0 0 1 0 18 L0 2 A2 2 0 0 1 2 0 L12 0 A2 2 0 0 1 14 2Z" transform="translate(9,6)"/>
    <circle cx="16" cy="16" r="3" fill="#fff" opacity="0.3"/>
    <path d="M10 16 L22 16" opacity="0.4"/>
    <path d="M16 10 L16 22" opacity="0.4"/>
  </g>
</svg>
